<?xml version="1.0" encoding="utf-8"?>
<!-- Generator: Adobe Illustrator 21.1.0, SVG Export Plug-In . SVG Version: 6.00 Build 0)  -->
<svg version="1.1" id="Layer_1" xmlns="http://www.w3.org/2000/svg" xmlns:xlink="http://www.w3.org/1999/xlink" x="0px" y="0px"
	 viewBox="0 0 50 50" style="enable-background:new 0 0 50 50;" xml:space="preserve">
<style type="text/css">
	.st0{fill:#3374ED;}
	.st1{fill:#BBD5FA;}
	.st2{fill:none;stroke:#BBD5FA;stroke-width:2;stroke-miterlimit:10;}
</style>
<g>
	<polygon class="st0" points="28.7,16.3 27.3,17.7 30.6,21 20,21 20,23 30.6,23 27.3,26.3 28.7,27.7 34.4,22 	"/>
	<g>
		<path class="st1" d="M35,13V4H5v32h10v10h30V13H35z M43,44H17v-8h18v-7h-2v5H7V6h26v9h1h1h8V44z"/>
		<rect x="10" y="9" class="st1" width="19" height="2"/>
		<rect x="10" y="13" class="st1" width="14" height="2"/>
		<rect x="10" y="17" class="st1" width="14" height="2"/>
		<rect x="10" y="25" class="st1" width="14" height="2"/>
		<rect x="10" y="21" class="st1" width="7" height="2"/>
		<rect x="10" y="29" class="st1" width="14" height="2"/>
	</g>
</g>
</svg>
