<svg id="Layer_1" data-name="Layer 1" xmlns="http://www.w3.org/2000/svg" viewBox="0 0 67.11 25.03"><defs><style>.cls-1{fill:#006cd1;}.cls-2{fill:#616161;}.cls-3{fill:#0089ff;}.cls-4{fill:#fff;}.cls-5{fill:#ddd;}</style></defs><title>logo_dl</title><path class="cls-1" d="M0,1.51A1.51,1.51,0,0,1,1.51,0H7.69c7.69,0,13.18,5.12,13.18,12.51S15.42,25,7.69,25H1.51A1.51,1.51,0,0,1,0,23.52Z"/><path class="cls-2" d="M30,13.92a17.64,17.64,0,0,1-2-.12.28.28,0,0,1-.27-.32v-7a.28.28,0,0,1,.27-.32A17.64,17.64,0,0,1,30,6a2.92,2.92,0,0,1,3.27,3.18v1.53A2.92,2.92,0,0,1,30,13.92Zm1.83-4.71c0-1.56-.79-2-1.83-2-.38,0-.66,0-.87,0v5.4c.22,0,.49,0,.87,0,1,0,1.83-.41,1.83-2Z"/><path class="cls-2" d="M36.47,13.84h-1a.21.21,0,0,1-.21-.21V6.31a.2.2,0,0,1,.21-.2h1a.2.2,0,0,1,.21.2v7.32A.21.21,0,0,1,36.47,13.84Z"/><path class="cls-2" d="M43.71,13.75a11.42,11.42,0,0,1-2.27.18c-1.12,0-2.79-.74-2.79-3.19V9.23c0-2.47,1.58-3.2,2.82-3.2a13.72,13.72,0,0,1,2.24.19c.14,0,.2.08.2.22v.7c0,.15,0,.22-.21.22h0c-.48,0-1.2-.08-2.2-.08-.7,0-1.36.49-1.36,2v1.5c0,1.48.72,2,1.33,2,.38,0,.71,0,1,0V10a.2.2,0,0,1,.2-.21h1a.21.21,0,0,1,.21.21v3.5A.23.23,0,0,1,43.71,13.75Z"/><path class="cls-2" d="M47.33,13.84h-1a.21.21,0,0,1-.21-.21V6.31a.2.2,0,0,1,.21-.2h1a.2.2,0,0,1,.21.2v7.32A.21.21,0,0,1,47.33,13.84Z"/><path class="cls-2" d="M54.5,7.32H52.68v6.31a.21.21,0,0,1-.21.21h-1a.21.21,0,0,1-.21-.21V7.32H49.42a.19.19,0,0,1-.21-.19V6.31a.2.2,0,0,1,.21-.2H54.5a.2.2,0,0,1,.21.2v.82A.19.19,0,0,1,54.5,7.32Z"/><path class="cls-2" d="M61.15,13.84H60a.22.22,0,0,1-.2-.18l-.48-2H57l-.48,2a.22.22,0,0,1-.2.18H55.2a.18.18,0,0,1-.19-.18.45.45,0,0,0,0-.05l1.71-6.52a1.52,1.52,0,0,1,2.89,0l1.71,6.52a.45.45,0,0,0,0,.05A.18.18,0,0,1,61.15,13.84ZM58.34,7.41c0-.12-.06-.17-.17-.17s-.14,0-.17.17l-.75,3.09h1.83Z"/><path class="cls-2" d="M66.9,13.78a11.29,11.29,0,0,1-1.77.15c-1.35,0-2.4-.36-2.4-2.13V6.32a.21.21,0,0,1,.21-.21h1a.21.21,0,0,1,.21.21v5.47c0,.69.21.89.81.89H66.9a.21.21,0,0,1,.21.21v.67C67.11,13.71,67.06,13.75,66.9,13.78Z"/><path class="cls-2" d="M31.84,24.57a11.29,11.29,0,0,1-1.77.15c-1.35,0-2.4-.36-2.4-2.13V17.11a.21.21,0,0,1,.21-.21h1a.21.21,0,0,1,.21.21v5.47c0,.69.21.89.81.89h1.91a.21.21,0,0,1,.21.21v.67C32.05,24.5,32,24.54,31.84,24.57Z"/><path class="cls-2" d="M37.84,24.57a9.81,9.81,0,0,1-2,.15c-1.35,0-2.4-.36-2.4-2.13V19c0-1.77,1.05-2.13,2.4-2.13a9.81,9.81,0,0,1,2,.15c.16,0,.21.07.21.22v.67a.21.21,0,0,1-.21.21H35.71c-.6,0-.82.21-.82.89v1.12h2.82a.21.21,0,0,1,.21.21V21a.21.21,0,0,1-.21.21H34.89v1.34c0,.69.22.89.82.89h2.12a.21.21,0,0,1,.21.21v.67C38,24.5,38,24.55,37.84,24.57Z"/><path class="cls-2" d="M45.63,24.63h-1.1a.22.22,0,0,1-.2-.18l-.48-2H41.46l-.48,2a.22.22,0,0,1-.2.18h-1.1a.18.18,0,0,1-.19-.18.45.45,0,0,0,0-.05l1.71-6.52a1.52,1.52,0,0,1,2.89,0l1.71,6.52a.45.45,0,0,0,0,.05A.18.18,0,0,1,45.63,24.63Zm-2.81-6.43c0-.12-.06-.17-.17-.17s-.14,0-.17.17l-.75,3.09h1.83Z"/><path class="cls-2" d="M49.79,21.75c-.27,0-.69,0-.93,0v2.72a.2.2,0,0,1-.2.21h-1a.21.21,0,0,1-.21-.21V17.27c0-.21.12-.28.33-.31a14.2,14.2,0,0,1,2-.14c1.6,0,3,.56,3,2.4v.09C52.79,21.16,51.39,21.75,49.79,21.75Zm1.56-2.53c0-.87-.52-1.21-1.56-1.21-.22,0-.74,0-.93,0v2.48l.93,0c1.12,0,1.56-.42,1.56-1.25Z"/><path class="cls-3" d="M1.51,25H7.69c7.73,0,13.18-5.12,13.18-12.51H0v11A1.51,1.51,0,0,0,1.51,25Z"/><polygon class="cls-4" points="6.28 12.51 4.76 4.8 10.44 8.66 16.11 12.51 10.44 16.37 4.76 20.23 6.28 12.51"/><polygon class="cls-5" points="4.76 4.8 6.28 12.51 16.11 12.51 10.44 8.66 4.76 4.8"/></svg>