<?xml version="1.0" encoding="utf-8"?>
<!-- Generator: Adobe Illustrator 21.1.0, SVG Export Plug-In . SVG Version: 6.00 Build 0)  -->
<svg version="1.1" id="Layer_1" xmlns="http://www.w3.org/2000/svg" xmlns:xlink="http://www.w3.org/1999/xlink" x="0px" y="0px"
	 viewBox="0 0 50 50" style="enable-background:new 0 0 50 50;" xml:space="preserve">
<style type="text/css">
	.st0{fill:#3374ED;}
	.st1{fill:#BBD5FA;}
	.st2{fill:none;stroke:#BBD5FA;stroke-width:2;stroke-miterlimit:10;}
</style>
<g>
	<g>
		<polygon class="st1" points="3,5.9 3,42.9 30,42.9 30,40.9 5,40.9 5,7.9 38,7.9 38,33.5 40,33.5 40,5.9 		"/>
		<rect x="15" y="10.9" class="st1" width="20" height="2"/>
		<rect x="15" y="14.9" class="st1" width="20" height="2"/>
		<rect x="15" y="18.9" class="st1" width="20" height="2"/>
		<rect x="15" y="22.9" class="st1" width="20" height="2"/>
		<rect x="15" y="26.9" class="st1" width="20" height="2"/>
		<rect x="8" y="10.9" class="st1" width="4" height="2"/>
		<rect x="8" y="14.9" class="st1" width="4" height="2"/>
		<rect x="8" y="18.9" class="st1" width="4" height="2"/>
		<rect x="8" y="22.9" class="st1" width="4" height="2"/>
		<rect x="8" y="26.9" class="st1" width="4" height="2"/>
		<rect x="15" y="30.9" class="st1" width="20" height="2"/>
		<rect x="8" y="30.9" class="st1" width="4" height="2"/>
		<rect x="15" y="34.9" class="st1" width="10" height="2"/>
		<rect x="8" y="34.9" class="st1" width="4" height="2"/>
	</g>
	<g>
		<polygon class="st0" points="35.8,44.1 28.1,36.4 29.5,35 35.8,41.3 45.6,31.5 47,32.9 		"/>
	</g>
</g>
</svg>
