<?xml version="1.0" encoding="utf-8"?>
<!-- Generator: Adobe Illustrator 21.0.2, SVG Export Plug-In . SVG Version: 6.00 Build 0)  -->
<svg version="1.1" id="Layer_1" xmlns="http://www.w3.org/2000/svg" xmlns:xlink="http://www.w3.org/1999/xlink" x="0px" y="0px"
	 viewBox="0 0 44 38" style="enable-background:new 0 0 44 38;" xml:space="preserve">
<style type="text/css">
	.st0{fill:#BBD5FA;}
	.st1{fill:#3374ED;}
</style>
<path class="st0" d="M0,0v6v2v30h44V8V6V0H0z M42,36H2V8h40V36z M2,6V2h40v4H2z"/>
<g>
	<rect x="39" y="3" class="st1" width="2" height="2"/>
</g>
<g>
	<rect x="36" y="3" class="st1" width="2" height="2"/>
</g>
<g>
	<rect x="33" y="3" class="st1" width="2" height="2"/>
</g>
<g>
	<g>
		<g>
			<polygon class="st1" points="28.2,27.7 26.8,26.3 31.1,22 26.8,17.7 28.2,16.3 33.9,22 			"/>
		</g>
		<g>
			<polygon class="st1" points="15.8,27.7 10.1,22 15.8,16.3 17.2,17.7 12.9,22 17.2,26.3 			"/>
		</g>
	</g>
	<g>
		<rect x="13.9" y="21" transform="matrix(0.3715 -0.9284 0.9284 0.3715 -6.5982 34.2533)" class="st1" width="16.2" height="2"/>
	</g>
</g>
</svg>
