<?xml version="1.0" encoding="utf-8"?>
<!-- Generator: Adobe Illustrator 21.1.0, SVG Export Plug-In . SVG Version: 6.00 Build 0)  -->
<svg version="1.1" id="Layer_1" xmlns="http://www.w3.org/2000/svg" xmlns:xlink="http://www.w3.org/1999/xlink" x="0px" y="0px"
	 viewBox="0 0 50 50" style="enable-background:new 0 0 50 50;" xml:space="preserve">
<style type="text/css">
	.st0{fill:#3374ED;}
	.st1{fill:#BBD5FA;}
	.st2{fill:none;stroke:#BBD5FA;stroke-width:2;stroke-miterlimit:10;}
</style>
<g>
	<g>
		<path class="st1" d="M47.3,36.7L44.8,29l-7.7,2.5l0.6,1.9l4.4-1.4c-2.8,6.9-9.6,11.5-17.1,11.5c-8.2,0-15.5-5.5-17.8-13.3
			l-1.9,0.6C7.9,39.4,15.9,45.5,25,45.5c8.3,0,15.8-5.1,18.9-12.7l1.5,4.5L47.3,36.7z"/>
		<path class="st1" d="M12.3,16.6L7.9,18C10.7,11.2,17.5,6.5,25,6.5c8.2,0,15.5,5.5,17.8,13.3l1.9-0.6C42.1,10.6,34.1,4.5,25,4.5
			c-8.3,0-15.8,5.1-18.9,12.7l-1.5-4.5l-1.9,0.6L5.2,21l7.7-2.5L12.3,16.6z"/>
	</g>
	<g>
		<polygon class="st0" points="24.3,32.7 16.5,25 18,23.5 24.3,29.8 34,20 35.5,21.5 		"/>
	</g>
</g>
</svg>
