<?xml version="1.0" encoding="utf-8"?>
<!-- Generator: Adobe Illustrator 21.1.0, SVG Export Plug-In . SVG Version: 6.00 Build 0)  -->
<svg version="1.1" id="Layer_1" xmlns="http://www.w3.org/2000/svg" xmlns:xlink="http://www.w3.org/1999/xlink" x="0px" y="0px"
	 viewBox="0 0 50 50" style="enable-background:new 0 0 50 50;" xml:space="preserve">
<style type="text/css">
	.st0{fill:#3374ED;}
	.st1{fill:#BBD5FA;}
	.st2{fill:none;stroke:#BBD5FA;stroke-width:2;stroke-miterlimit:10;}
</style>
<g>
	<g>
		<polygon class="st1" points="45,6.7 27.1,6.7 27.1,8.7 43,8.7 43,20.7 5,20.7 5,8.7 20.9,8.7 20.9,6.7 3,6.7 3,22.7 45,22.7 		"/>
		<path class="st1" d="M3,45.8h20V26.7H3V45.8z M5,28.7h16v15.1H5V28.7z"/>
		<path class="st1" d="M37,25.7c-5.5,0-10,4.5-10,10s4.5,10,10,10s10-4.5,10-10S42.5,25.7,37,25.7z M37,43.7c-4.4,0-8-3.6-8-8
			s3.6-8,8-8s8,3.6,8,8S41.4,43.7,37,43.7z"/>
	</g>
	<polygon class="st0" points="28.3,11.5 25,14.8 25,4.2 23,4.2 23,14.8 19.7,11.5 18.3,12.9 24,18.6 29.7,12.9 	"/>
</g>
</svg>
